# xmcd CD database file
#
# Track frame offsets:
#	150
#	14913
#	29831
#	43848
#	58571
#
# Disc length: 986 seconds
#
# Revision: 3
# Processed by: cddbd v1.5.2PL0 Copyright (c) Steve Scherf et al.
# Submitted via: CDex 1.70beta2
#
DISCID=4703d805
DTITLE=Courtney Lynn - Bad Girl
DYEAR=2016
DGENRE=Country
TTITLE0=Guys Like That
TTITLE1=Slow and Steady Rain
TTITLE2=My Fish
TTITLE3=Bad Girl
TTITLE4=Johnny Cash
EXTD=YEAR: 2016
EXTT0=
EXTT1=
EXTT2=
EXTT3=
EXTT4=
PLAYORDER=
